<svg
              width="242"
              height="241"
              xmlns="http://www.w3.org/2000/svg"
              xmlns:xlink="http://www.w3.org/1999/xlink"
              xml:space="preserve"
              overflow="hidden"
            >
              <g transform="translate(-336 -685)">
                <path
                  d="M552.95 917.531 561.258 917.531 561.258 925.807 552.95 925.807ZM544.639 917.531 552.947 917.531 552.947 925.807 544.639 925.807ZM536.329 917.531 544.636 917.531 544.636 925.807 536.329 925.807ZM528.018 917.531 536.326 917.531 536.326 925.807 528.018 925.807ZM511.396 917.531 519.706 917.531 519.706 925.807 511.396 925.807ZM478.155 917.531 486.464 917.531 486.464 925.807 478.155 925.807ZM444.914 917.531 453.223 917.531 453.223 925.807 444.914 925.807ZM419.982 917.531 428.292 917.531 428.292 925.807 419.982 925.807ZM411.672 917.531 419.981 917.531 419.981 925.807 411.672 925.807ZM403.361 917.531 411.671 917.531 411.671 925.807 403.361 925.807ZM386.741 917.531 395.05 917.531 395.05 925.807 386.741 925.807ZM378.431 917.531 386.74 917.531 386.74 925.807 378.431 925.807ZM370.12 917.531 378.43 917.531 378.43 925.807 370.12 925.807ZM361.81 917.531 370.119 917.531 370.119 925.807 361.81 925.807ZM353.5 917.531 361.809 917.531 361.809 925.807 353.5 925.807ZM345.189 917.531 353.498 917.531 353.498 925.807 345.189 925.807ZM336.879 917.531 345.188 917.531 345.188 925.807 336.879 925.807ZM561.258 909.255 569.568 909.255 569.568 917.531 561.258 917.531ZM544.639 909.255 552.947 909.255 552.947 917.531 544.639 917.531ZM536.329 909.255 544.636 909.255 544.636 917.531 536.329 917.531ZM528.018 909.255 536.326 909.255 536.326 917.531 528.018 917.531ZM503.086 909.255 511.396 909.255 511.396 917.531 503.086 917.531ZM486.466 909.255 494.775 909.255 494.775 917.531 486.466 917.531ZM453.224 909.255 461.533 909.255 461.533 917.531 453.224 917.531ZM411.672 909.255 419.981 909.255 419.981 917.531 411.672 917.531ZM403.361 909.255 411.671 909.255 411.671 917.531 403.361 917.531ZM386.741 909.255 395.05 909.255 395.05 917.531 386.741 917.531ZM336.879 909.255 345.188 909.255 345.188 917.531 336.879 917.531ZM561.258 900.982 569.568 900.982 569.568 909.255 561.258 909.255ZM552.95 900.982 561.258 900.982 561.258 909.255 552.95 909.255ZM544.639 900.982 552.947 900.982 552.947 909.255 544.639 909.255ZM536.329 900.982 544.636 900.982 544.636 909.255 536.329 909.255ZM519.707 900.982 528.015 900.982 528.015 909.255 519.707 909.255ZM503.086 900.982 511.396 900.982 511.396 909.255 503.086 909.255ZM494.776 900.982 503.085 900.982 503.085 909.255 494.776 909.255ZM486.466 900.982 494.775 900.982 494.775 909.255 486.466 909.255ZM478.155 900.982 486.464 900.982 486.464 909.255 478.155 909.255ZM469.845 900.982 478.154 900.982 478.154 909.255 469.845 909.255ZM461.534 900.982 469.844 900.982 469.844 909.255 461.534 909.255ZM453.224 900.982 461.533 900.982 461.533 909.255 453.224 909.255ZM444.914 900.982 453.223 900.982 453.223 909.255 444.914 909.255ZM436.603 900.982 444.913 900.982 444.913 909.255 436.603 909.255ZM403.361 900.982 411.671 900.982 411.671 909.255 403.361 909.255ZM386.741 900.982 395.05 900.982 395.05 909.255 386.741 909.255ZM370.12 900.982 378.43 900.982 378.43 909.255 370.12 909.255ZM361.81 900.982 370.119 900.982 370.119 909.255 361.81 909.255ZM353.5 900.982 361.809 900.982 361.809 909.255 353.5 909.255ZM336.879 900.982 345.188 900.982 345.188 909.255 336.879 909.255ZM569.568 892.705 577.879 892.705 577.879 900.979 569.568 900.979ZM561.258 892.705 569.568 892.705 569.568 900.979 561.258 900.979ZM552.95 892.705 561.258 892.705 561.258 900.979 552.95 900.979ZM544.639 892.705 552.947 892.705 552.947 900.979 544.639 900.979ZM503.086 892.705 511.396 892.705 511.396 900.979 503.086 900.979ZM486.466 892.705 494.775 892.705 494.775 900.979 486.466 900.979ZM478.155 892.705 486.464 892.705 486.464 900.979 478.155 900.979ZM469.845 892.705 478.154 892.705 478.154 900.979 469.845 900.979ZM453.224 892.705 461.533 892.705 461.533 900.979 453.224 900.979ZM436.603 892.705 444.913 892.705 444.913 900.979 436.603 900.979ZM419.982 892.705 428.292 892.705 428.292 900.979 419.982 900.979ZM403.361 892.705 411.671 892.705 411.671 900.979 403.361 900.979ZM386.741 892.705 395.05 892.705 395.05 900.979 386.741 900.979ZM370.12 892.705 378.43 892.705 378.43 900.979 370.12 900.979ZM361.81 892.705 370.119 892.705 370.119 900.979 361.81 900.979ZM353.5 892.705 361.809 892.705 361.809 900.979 353.5 900.979ZM336.879 892.705 345.188 892.705 345.188 900.979 336.879 900.979ZM569.568 884.43 577.879 884.43 577.879 892.703 569.568 892.703ZM552.95 884.43 561.258 884.43 561.258 892.703 552.95 892.703ZM536.329 884.43 544.636 884.43 544.636 892.703 536.329 892.703ZM528.018 884.43 536.326 884.43 536.326 892.703 528.018 892.703ZM519.707 884.43 528.015 884.43 528.015 892.703 519.707 892.703ZM511.396 884.43 519.706 884.43 519.706 892.703 511.396 892.703ZM503.086 884.43 511.396 884.43 511.396 892.703 503.086 892.703ZM444.914 884.43 453.223 884.43 453.223 892.703 444.914 892.703ZM436.603 884.43 444.913 884.43 444.913 892.703 436.603 892.703ZM428.293 884.43 436.602 884.43 436.602 892.703 428.293 892.703ZM411.672 884.43 419.981 884.43 419.981 892.703 411.672 892.703ZM403.361 884.43 411.671 884.43 411.671 892.703 403.361 892.703ZM386.741 884.43 395.05 884.43 395.05 892.703 386.741 892.703ZM370.12 884.43 378.43 884.43 378.43 892.703 370.12 892.703ZM361.81 884.43 370.119 884.43 370.119 892.703 361.81 892.703ZM353.5 884.43 361.809 884.43 361.809 892.703 353.5 892.703ZM336.879 884.43 345.188 884.43 345.188 892.703 336.879 892.703ZM561.258 876.153 569.568 876.153 569.568 884.427 561.258 884.427ZM536.329 876.153 544.636 876.153 544.636 884.427 536.329 884.427ZM503.086 876.153 511.396 876.153 511.396 884.427 503.086 884.427ZM494.776 876.153 503.085 876.153 503.085 884.427 494.776 884.427ZM486.466 876.153 494.775 876.153 494.775 884.427 486.466 884.427ZM428.293 876.153 436.602 876.153 436.602 884.427 428.293 884.427ZM419.982 876.153 428.292 876.153 428.292 884.427 419.982 884.427ZM386.741 876.153 395.05 876.153 395.05 884.427 386.741 884.427ZM336.879 876.153 345.188 876.153 345.188 884.427 336.879 884.427ZM552.95 867.877 561.258 867.877 561.258 876.151 552.95 876.151ZM544.639 867.877 552.947 867.877 552.947 876.151 544.639 876.151ZM536.329 867.877 544.636 867.877 544.636 876.151 536.329 876.151ZM519.707 867.877 528.015 867.877 528.015 876.151 519.707 876.151ZM503.086 867.877 511.396 867.877 511.396 876.151 503.086 876.151ZM494.776 867.877 503.085 867.877 503.085 876.151 494.776 876.151ZM469.845 867.877 478.154 867.877 478.154 876.151 469.845 876.151ZM461.534 867.877 469.844 867.877 469.844 876.151 461.534 876.151ZM444.914 867.877 453.223 867.877 453.223 876.151 444.914 876.151ZM436.603 867.877 444.913 867.877 444.913 876.151 436.603 876.151ZM428.293 867.877 436.602 867.877 436.602 876.151 428.293 876.151ZM419.982 867.877 428.292 867.877 428.292 876.151 419.982 876.151ZM411.672 867.877 419.981 867.877 419.981 876.151 411.672 876.151ZM403.361 867.877 411.671 867.877 411.671 876.151 403.361 876.151ZM386.741 867.877 395.05 867.877 395.05 876.151 386.741 876.151ZM378.431 867.877 386.74 867.877 386.74 876.151 378.431 876.151ZM370.12 867.877 378.43 867.877 378.43 876.151 370.12 876.151ZM361.81 867.877 370.119 867.877 370.119 876.151 361.81 876.151ZM353.5 867.877 361.809 867.877 361.809 876.151 353.5 876.151ZM345.189 867.877 353.498 867.877 353.498 876.151 345.189 876.151ZM336.879 867.877 345.188 867.877 345.188 876.151 336.879 876.151ZM569.568 859.601 577.879 859.601 577.879 867.874 569.568 867.874ZM561.258 859.601 569.568 859.601 569.568 867.874 561.258 867.874ZM552.95 859.601 561.258 859.601 561.258 867.874 552.95 867.874ZM544.639 859.601 552.947 859.601 552.947 867.874 544.639 867.874ZM536.329 859.601 544.636 859.601 544.636 867.874 536.329 867.874ZM503.086 859.601 511.396 859.601 511.396 867.874 503.086 867.874ZM486.466 859.601 494.775 859.601 494.775 867.874 486.466 867.874ZM478.155 859.601 486.464 859.601 486.464 867.874 478.155 867.874ZM453.224 859.601 461.533 859.601 461.533 867.874 453.224 867.874ZM419.982 859.601 428.292 859.601 428.292 867.874 419.982 867.874ZM403.361 859.601 411.671 859.601 411.671 867.874 403.361 867.874ZM569.568 851.325 577.879 851.325 577.879 859.599 569.568 859.599ZM561.258 851.325 569.568 851.325 569.568 859.599 561.258 859.599ZM552.95 851.325 561.258 851.325 561.258 859.599 552.95 859.599ZM536.329 851.325 544.636 851.325 544.636 859.599 536.329 859.599ZM528.018 851.325 536.326 851.325 536.326 859.599 528.018 859.599ZM519.707 851.325 528.015 851.325 528.015 859.599 519.707 859.599ZM511.396 851.325 519.706 851.325 519.706 859.599 511.396 859.599ZM503.086 851.325 511.396 851.325 511.396 859.599 503.086 859.599ZM469.845 851.325 478.154 851.325 478.154 859.599 469.845 859.599ZM461.534 851.325 469.844 851.325 469.844 859.599 461.534 859.599ZM453.224 851.325 461.533 851.325 461.533 859.599 453.224 859.599ZM436.603 851.325 444.913 851.325 444.913 859.599 436.603 859.599ZM411.672 851.325 419.981 851.325 419.981 859.599 411.672 859.599ZM403.361 851.325 411.671 851.325 411.671 859.599 403.361 859.599ZM386.741 851.325 395.05 851.325 395.05 859.599 386.741 859.599ZM370.12 851.325 378.43 851.325 378.43 859.599 370.12 859.599ZM353.5 851.325 361.809 851.325 361.809 859.599 353.5 859.599ZM336.879 851.325 345.188 851.325 345.188 859.599 336.879 859.599ZM561.258 843.049 569.568 843.049 569.568 851.325 561.258 851.325ZM528.018 843.049 536.326 843.049 536.326 851.325 528.018 851.325ZM494.776 843.049 503.085 843.049 503.085 851.325 494.776 851.325ZM486.466 843.049 494.775 843.049 494.775 851.325 486.466 851.325ZM469.845 843.049 478.154 843.049 478.154 851.325 469.845 851.325ZM461.534 843.049 469.844 843.049 469.844 851.325 461.534 851.325ZM453.224 843.049 461.533 843.049 461.533 851.325 453.224 851.325ZM436.603 843.049 444.913 843.049 444.913 851.325 436.603 851.325ZM419.982 843.049 428.292 843.049 428.292 851.325 419.982 851.325ZM411.672 843.049 419.981 843.049 419.981 851.325 411.672 851.325ZM395.051 843.049 403.361 843.049 403.361 851.325 395.051 851.325ZM361.81 843.049 370.119 843.049 370.119 851.325 361.81 851.325ZM336.879 843.049 345.188 843.049 345.188 851.325 336.879 851.325ZM552.95 834.773 561.258 834.773 561.258 843.049 552.95 843.049ZM511.396 834.773 519.706 834.773 519.706 843.049 511.396 843.049ZM503.086 834.773 511.396 834.773 511.396 843.049 503.086 843.049ZM461.534 834.773 469.844 834.773 469.844 843.049 461.534 843.049ZM411.672 834.773 419.981 834.773 419.981 843.049 411.672 843.049ZM403.361 834.773 411.671 834.773 411.671 843.049 403.361 843.049ZM395.051 834.773 403.361 834.773 403.361 843.049 395.051 843.049ZM386.741 834.773 395.05 834.773 395.05 843.049 386.741 843.049ZM370.12 834.773 378.43 834.773 378.43 843.049 370.12 843.049ZM361.81 834.773 370.119 834.773 370.119 843.049 361.81 843.049ZM353.5 834.773 361.809 834.773 361.809 843.049 353.5 843.049ZM336.879 834.773 345.188 834.773 345.188 843.049 336.879 843.049ZM569.568 826.497 577.879 826.497 577.879 834.773 569.568 834.773ZM552.95 826.497 561.258 826.497 561.258 834.773 552.95 834.773ZM536.329 826.497 544.636 826.497 544.636 834.773 536.329 834.773ZM528.018 826.497 536.326 826.497 536.326 834.773 528.018 834.773ZM519.707 826.497 528.015 826.497 528.015 834.773 519.707 834.773ZM511.396 826.497 519.706 826.497 519.706 834.773 511.396 834.773ZM503.086 826.497 511.396 826.497 511.396 834.773 503.086 834.773ZM494.776 826.497 503.085 826.497 503.085 834.773 494.776 834.773ZM486.466 826.497 494.775 826.497 494.775 834.773 486.466 834.773ZM478.155 826.497 486.464 826.497 486.464 834.773 478.155 834.773ZM469.845 826.497 478.154 826.497 478.154 834.773 469.845 834.773ZM444.914 826.497 453.223 826.497 453.223 834.773 444.914 834.773ZM436.603 826.497 444.913 826.497 444.913 834.773 436.603 834.773ZM419.982 826.497 428.292 826.497 428.292 834.773 419.982 834.773ZM411.672 826.497 419.981 826.497 419.981 834.773 411.672 834.773ZM378.431 826.497 386.74 826.497 386.74 834.773 378.431 834.773ZM353.5 826.497 361.809 826.497 361.809 834.773 353.5 834.773ZM345.189 826.497 353.498 826.497 353.498 834.773 345.189 834.773ZM336.879 826.497 345.188 826.497 345.188 834.773 336.879 834.773ZM552.95 818.221 561.258 818.221 561.258 826.497 552.95 826.497ZM544.639 818.221 552.947 818.221 552.947 826.497 544.639 826.497ZM528.018 818.221 536.326 818.221 536.326 826.497 528.018 826.497ZM494.776 818.221 503.085 818.221 503.085 826.497 494.776 826.497ZM469.845 818.221 478.154 818.221 478.154 826.497 469.845 826.497ZM461.534 818.221 469.844 818.221 469.844 826.497 461.534 826.497ZM453.224 818.221 461.533 818.221 461.533 826.497 453.224 826.497ZM444.914 818.221 453.223 818.221 453.223 826.497 444.914 826.497ZM428.293 818.221 436.602 818.221 436.602 826.497 428.293 826.497ZM419.982 818.221 428.292 818.221 428.292 826.497 419.982 826.497ZM411.672 818.221 419.981 818.221 419.981 826.497 411.672 826.497ZM386.741 818.221 395.05 818.221 395.05 826.497 386.741 826.497ZM361.81 818.221 370.119 818.221 370.119 826.497 361.81 826.497ZM345.189 818.221 353.498 818.221 353.498 826.497 345.189 826.497ZM336.879 818.221 345.188 818.221 345.188 826.497 336.879 826.497ZM561.258 809.945 569.568 809.945 569.568 818.221 561.258 818.221ZM536.329 809.945 544.636 809.945 544.636 818.221 536.329 818.221ZM528.018 809.945 536.326 809.945 536.326 818.221 528.018 818.221ZM511.396 809.945 519.706 809.945 519.706 818.221 511.396 818.221ZM503.086 809.945 511.396 809.945 511.396 818.221 503.086 818.221ZM494.776 809.945 503.085 809.945 503.085 818.221 494.776 818.221ZM486.466 809.945 494.775 809.945 494.775 818.221 486.466 818.221ZM469.845 809.945 478.154 809.945 478.154 818.221 469.845 818.221ZM428.293 809.945 436.602 809.945 436.602 818.221 428.293 818.221ZM419.982 809.945 428.292 809.945 428.292 818.221 419.982 818.221ZM411.672 809.945 419.981 809.945 419.981 818.221 411.672 818.221ZM403.361 809.945 411.671 809.945 411.671 818.221 403.361 818.221ZM370.12 809.945 378.43 809.945 378.43 818.221 370.12 818.221ZM345.189 809.945 353.498 809.945 353.498 818.221 345.189 818.221ZM552.95 801.669 561.258 801.669 561.258 809.944 552.95 809.944ZM544.639 801.669 552.947 801.669 552.947 809.944 544.639 809.944ZM528.018 801.669 536.326 801.669 536.326 809.944 528.018 809.944ZM519.707 801.669 528.015 801.669 528.015 809.944 519.707 809.944ZM511.396 801.669 519.706 801.669 519.706 809.944 511.396 809.944ZM503.086 801.669 511.396 801.669 511.396 809.944 503.086 809.944ZM486.466 801.669 494.775 801.669 494.775 809.944 486.466 809.944ZM478.155 801.669 486.464 801.669 486.464 809.944 478.155 809.944ZM469.845 801.669 478.154 801.669 478.154 809.944 469.845 809.944ZM461.534 801.669 469.844 801.669 469.844 809.944 461.534 809.944ZM453.224 801.669 461.533 801.669 461.533 809.944 453.224 809.944ZM444.914 801.669 453.223 801.669 453.223 809.944 444.914 809.944ZM436.603 801.669 444.913 801.669 444.913 809.944 436.603 809.944ZM428.293 801.669 436.602 801.669 436.602 809.944 428.293 809.944ZM419.982 801.669 428.292 801.669 428.292 809.944 419.982 809.944ZM411.672 801.669 419.981 801.669 419.981 809.944 411.672 809.944ZM386.741 801.669 395.05 801.669 395.05 809.944 386.741 809.944ZM361.81 801.669 370.119 801.669 370.119 809.944 361.81 809.944ZM353.5 801.669 361.809 801.669 361.809 809.944 353.5 809.944ZM336.879 801.669 345.188 801.669 345.188 809.944 336.879 809.944ZM569.568 793.394 577.879 793.394 577.879 801.668 569.568 801.668ZM536.329 793.394 544.636 793.394 544.636 801.668 536.329 801.668ZM528.018 793.394 536.326 793.394 536.326 801.668 528.018 801.668ZM519.707 793.394 528.015 793.394 528.015 801.668 519.707 801.668ZM511.396 793.394 519.706 793.394 519.706 801.668 511.396 801.668ZM503.086 793.394 511.396 793.394 511.396 801.668 503.086 801.668ZM494.776 793.394 503.085 793.394 503.085 801.668 494.776 801.668ZM453.224 793.394 461.533 793.394 461.533 801.668 453.224 801.668ZM403.361 793.394 411.671 793.394 411.671 801.668 403.361 801.668ZM370.12 793.394 378.43 793.394 378.43 801.668 370.12 801.668ZM361.81 793.394 370.119 793.394 370.119 801.668 361.81 801.668ZM345.189 793.394 353.498 793.394 353.498 801.668 345.189 801.668ZM552.95 785.117 561.258 785.117 561.258 793.393 552.95 793.393ZM544.639 785.117 552.947 785.117 552.947 793.393 544.639 793.393ZM494.776 785.117 503.085 785.117 503.085 793.393 494.776 793.393ZM469.845 785.117 478.154 785.117 478.154 793.393 469.845 793.393ZM461.534 785.117 469.844 785.117 469.844 793.393 461.534 793.393ZM453.224 785.117 461.533 785.117 461.533 793.393 453.224 793.393ZM444.914 785.117 453.223 785.117 453.223 793.393 444.914 793.393ZM436.603 785.117 444.913 785.117 444.913 793.393 436.603 793.393ZM419.982 785.117 428.292 785.117 428.292 793.393 419.982 793.393ZM411.672 785.117 419.981 785.117 419.981 793.393 411.672 793.393ZM403.361 785.117 411.671 785.117 411.671 793.393 403.361 793.393ZM386.741 785.117 395.05 785.117 395.05 793.393 386.741 793.393ZM378.431 785.117 386.74 785.117 386.74 793.393 378.431 793.393ZM561.258 776.842 569.568 776.842 569.568 785.116 561.258 785.116ZM544.639 776.842 552.947 776.842 552.947 785.116 544.639 785.116ZM536.329 776.842 544.636 776.842 544.636 785.116 536.329 785.116ZM528.018 776.842 536.326 776.842 536.326 785.116 528.018 785.116ZM519.707 776.842 528.015 776.842 528.015 785.116 519.707 785.116ZM503.086 776.842 511.396 776.842 511.396 785.116 503.086 785.116ZM461.534 776.842 469.844 776.842 469.844 785.116 461.534 785.116ZM436.603 776.842 444.913 776.842 444.913 785.116 436.603 785.116ZM378.431 776.842 386.74 776.842 386.74 785.116 378.431 785.116ZM370.12 776.842 378.43 776.842 378.43 785.116 370.12 785.116ZM353.5 776.842 361.809 776.842 361.809 785.116 353.5 785.116ZM536.329 768.566 544.636 768.566 544.636 776.841 536.329 776.841ZM528.018 768.566 536.326 768.566 536.326 776.841 528.018 776.841ZM511.396 768.566 519.706 768.566 519.706 776.841 511.396 776.841ZM503.086 768.566 511.396 768.566 511.396 776.841 503.086 776.841ZM486.466 768.566 494.775 768.566 494.775 776.841 486.466 776.841ZM469.845 768.566 478.154 768.566 478.154 776.841 469.845 776.841ZM461.534 768.566 469.844 768.566 469.844 776.841 461.534 776.841ZM453.224 768.566 461.533 768.566 461.533 776.841 453.224 776.841ZM419.982 768.566 428.292 768.566 428.292 776.841 419.982 776.841ZM403.361 768.566 411.671 768.566 411.671 776.841 403.361 776.841ZM386.741 768.566 395.05 768.566 395.05 776.841 386.741 776.841ZM353.5 768.566 361.809 768.566 361.809 776.841 353.5 776.841ZM336.879 768.566 345.188 768.566 345.188 776.841 336.879 776.841ZM569.568 760.29 577.879 760.29 577.879 768.565 569.568 768.565ZM536.329 760.29 544.636 760.29 544.636 768.565 536.329 768.565ZM528.018 760.29 536.326 760.29 536.326 768.565 528.018 768.565ZM519.707 760.29 528.015 760.29 528.015 768.565 519.707 768.565ZM511.396 760.29 519.706 760.29 519.706 768.565 511.396 768.565ZM494.776 760.29 503.085 760.29 503.085 768.565 494.776 768.565ZM478.155 760.29 486.464 760.29 486.464 768.565 478.155 768.565ZM469.845 760.29 478.154 760.29 478.154 768.565 469.845 768.565ZM461.534 760.29 469.844 760.29 469.844 768.565 461.534 768.565ZM444.914 760.29 453.223 760.29 453.223 768.565 444.914 768.565ZM436.603 760.29 444.913 760.29 444.913 768.565 436.603 768.565ZM419.982 760.29 428.292 760.29 428.292 768.565 419.982 768.565ZM403.361 760.29 411.671 760.29 411.671 768.565 403.361 768.565ZM395.051 760.29 403.361 760.29 403.361 768.565 395.051 768.565ZM370.12 760.29 378.43 760.29 378.43 768.565 370.12 768.565ZM353.5 760.29 361.809 760.29 361.809 768.565 353.5 768.565ZM345.189 760.29 353.498 760.29 353.498 768.565 345.189 768.565ZM336.879 760.29 345.188 760.29 345.188 768.565 336.879 768.565ZM561.258 752.014 569.568 752.014 569.568 760.289 561.258 760.289ZM544.639 752.014 552.947 752.014 552.947 760.289 544.639 760.289ZM528.018 752.014 536.326 752.014 536.326 760.289 528.018 760.289ZM511.396 752.014 519.706 752.014 519.706 760.289 511.396 760.289ZM494.776 752.014 503.085 752.014 503.085 760.289 494.776 760.289ZM478.155 752.014 486.464 752.014 486.464 760.289 478.155 760.289ZM469.845 752.014 478.154 752.014 478.154 760.289 469.845 760.289ZM461.534 752.014 469.844 752.014 469.844 760.289 461.534 760.289ZM453.224 752.014 461.533 752.014 461.533 760.289 453.224 760.289ZM428.293 752.014 436.602 752.014 436.602 760.289 428.293 760.289ZM411.672 752.014 419.981 752.014 419.981 760.289 411.672 760.289ZM403.361 752.014 411.671 752.014 411.671 760.289 403.361 760.289ZM395.051 752.014 403.361 752.014 403.361 760.289 395.051 760.289ZM386.741 752.014 395.05 752.014 395.05 760.289 386.741 760.289ZM370.12 752.014 378.43 752.014 378.43 760.289 370.12 760.289ZM361.81 752.014 370.119 752.014 370.119 760.289 361.81 760.289ZM353.5 752.014 361.809 752.014 361.809 760.289 353.5 760.289ZM345.189 752.014 353.498 752.014 353.498 760.289 345.189 760.289ZM336.879 752.014 345.188 752.014 345.188 760.289 336.879 760.289ZM503.086 743.738 511.396 743.738 511.396 752.013 503.086 752.013ZM494.776 743.738 503.085 743.738 503.085 752.013 494.776 752.013ZM469.845 743.738 478.154 743.738 478.154 752.013 469.845 752.013ZM453.224 743.738 461.533 743.738 461.533 752.013 453.224 752.013ZM428.293 743.738 436.602 743.738 436.602 752.013 428.293 752.013ZM419.982 743.738 428.292 743.738 428.292 752.013 419.982 752.013ZM411.672 743.738 419.981 743.738 419.981 752.013 411.672 752.013ZM569.568 735.463 577.879 735.463 577.879 743.737 569.568 743.737ZM561.258 735.463 569.568 735.463 569.568 743.737 561.258 743.737ZM552.95 735.463 561.258 735.463 561.258 743.737 552.95 743.737ZM544.639 735.463 552.947 735.463 552.947 743.737 544.639 743.737ZM536.329 735.463 544.636 735.463 544.636 743.737 536.329 743.737ZM528.018 735.463 536.326 735.463 536.326 743.737 528.018 743.737ZM519.707 735.463 528.015 735.463 528.015 743.737 519.707 743.737ZM503.086 735.463 511.396 735.463 511.396 743.737 503.086 743.737ZM486.466 735.463 494.775 735.463 494.775 743.737 486.466 743.737ZM469.845 735.463 478.154 735.463 478.154 743.737 469.845 743.737ZM453.224 735.463 461.533 735.463 461.533 743.737 453.224 743.737ZM436.603 735.463 444.913 735.463 444.913 743.737 436.603 743.737ZM419.982 735.463 428.292 735.463 428.292 743.737 419.982 743.737ZM403.361 735.463 411.671 735.463 411.671 743.737 403.361 743.737ZM386.741 735.463 395.05 735.463 395.05 743.737 386.741 743.737ZM378.431 735.463 386.74 735.463 386.74 743.737 378.431 743.737ZM370.12 735.463 378.43 735.463 378.43 743.737 370.12 743.737ZM361.81 735.463 370.119 735.463 370.119 743.737 361.81 743.737ZM353.5 735.463 361.809 735.463 361.809 743.737 353.5 743.737ZM345.189 735.463 353.498 735.463 353.498 743.737 345.189 743.737ZM336.879 735.463 345.188 735.463 345.188 743.737 336.879 743.737ZM569.568 727.186 577.879 727.186 577.879 735.461 569.568 735.461ZM519.707 727.186 528.015 727.186 528.015 735.461 519.707 735.461ZM503.086 727.186 511.396 727.186 511.396 735.461 503.086 735.461ZM486.466 727.186 494.775 727.186 494.775 735.461 486.466 735.461ZM461.534 727.186 469.844 727.186 469.844 735.461 461.534 735.461ZM436.603 727.186 444.913 727.186 444.913 735.461 436.603 735.461ZM428.293 727.186 436.602 727.186 436.602 735.461 428.293 735.461ZM411.672 727.186 419.981 727.186 419.981 735.461 411.672 735.461ZM403.361 727.186 411.671 727.186 411.671 735.461 403.361 735.461ZM386.741 727.186 395.05 727.186 395.05 735.461 386.741 735.461ZM336.879 727.186 345.188 727.186 345.188 735.461 336.879 735.461ZM569.568 718.911 577.879 718.911 577.879 727.186 569.568 727.186ZM552.95 718.911 561.258 718.911 561.258 727.186 552.95 727.186ZM544.639 718.911 552.947 718.911 552.947 727.186 544.639 727.186ZM536.329 718.911 544.636 718.911 544.636 727.186 536.329 727.186ZM519.707 718.911 528.015 718.911 528.015 727.186 519.707 727.186ZM503.086 718.911 511.396 718.911 511.396 727.186 503.086 727.186ZM494.776 718.911 503.085 718.911 503.085 727.186 494.776 727.186ZM486.466 718.911 494.775 718.911 494.775 727.186 486.466 727.186ZM478.155 718.911 486.464 718.911 486.464 727.186 478.155 727.186ZM469.845 718.911 478.154 718.911 478.154 727.186 469.845 727.186ZM453.224 718.911 461.533 718.911 461.533 727.186 453.224 727.186ZM411.672 718.911 419.981 718.911 419.981 727.186 411.672 727.186ZM386.741 718.911 395.05 718.911 395.05 727.186 386.741 727.186ZM370.12 718.911 378.43 718.911 378.43 727.186 370.12 727.186ZM361.81 718.911 370.119 718.911 370.119 727.186 361.81 727.186ZM353.5 718.911 361.809 718.911 361.809 727.186 353.5 727.186ZM336.879 718.911 345.188 718.911 345.188 727.186 336.879 727.186ZM569.568 710.634 577.879 710.634 577.879 718.909 569.568 718.909ZM552.95 710.634 561.258 710.634 561.258 718.909 552.95 718.909ZM544.639 710.634 552.947 710.634 552.947 718.909 544.639 718.909ZM536.329 710.634 544.636 710.634 544.636 718.909 536.329 718.909ZM519.707 710.634 528.015 710.634 528.015 718.909 519.707 718.909ZM494.776 710.634 503.085 710.634 503.085 718.909 494.776 718.909ZM444.914 710.634 453.223 710.634 453.223 718.909 444.914 718.909ZM436.603 710.634 444.913 710.634 444.913 718.909 436.603 718.909ZM419.982 710.634 428.292 710.634 428.292 718.909 419.982 718.909ZM411.672 710.634 419.981 710.634 419.981 718.909 411.672 718.909ZM403.361 710.634 411.671 710.634 411.671 718.909 403.361 718.909ZM386.741 710.634 395.05 710.634 395.05 718.909 386.741 718.909ZM370.12 710.634 378.43 710.634 378.43 718.909 370.12 718.909ZM361.81 710.634 370.119 710.634 370.119 718.909 361.81 718.909ZM353.5 710.634 361.809 710.634 361.809 718.909 353.5 718.909ZM336.879 710.634 345.188 710.634 345.188 718.909 336.879 718.909ZM569.568 702.359 577.879 702.359 577.879 710.634 569.568 710.634ZM552.95 702.359 561.258 702.359 561.258 710.634 552.95 710.634ZM544.639 702.359 552.947 702.359 552.947 710.634 544.639 710.634ZM536.329 702.359 544.636 702.359 544.636 710.634 536.329 710.634ZM519.707 702.359 528.015 702.359 528.015 710.634 519.707 710.634ZM494.776 702.359 503.085 702.359 503.085 710.634 494.776 710.634ZM461.534 702.359 469.844 702.359 469.844 710.634 461.534 710.634ZM436.603 702.359 444.913 702.359 444.913 710.634 436.603 710.634ZM386.741 702.359 395.05 702.359 395.05 710.634 386.741 710.634ZM370.12 702.359 378.43 702.359 378.43 710.634 370.12 710.634ZM361.81 702.359 370.119 702.359 370.119 710.634 361.81 710.634ZM353.5 702.359 361.809 702.359 361.809 710.634 353.5 710.634ZM336.879 702.359 345.188 702.359 345.188 710.634 336.879 710.634ZM569.568 694.083 577.879 694.083 577.879 702.357 569.568 702.357ZM519.707 694.083 528.015 694.083 528.015 702.357 519.707 702.357ZM503.086 694.083 511.396 694.083 511.396 702.357 503.086 702.357ZM469.845 694.083 478.154 694.083 478.154 702.357 469.845 702.357ZM461.534 694.083 469.844 694.083 469.844 702.357 461.534 702.357ZM453.224 694.083 461.533 694.083 461.533 702.357 453.224 702.357ZM419.982 694.083 428.292 694.083 428.292 702.357 419.982 702.357ZM403.361 694.083 411.671 694.083 411.671 702.357 403.361 702.357ZM386.741 694.083 395.05 694.083 395.05 702.357 386.741 702.357ZM336.879 694.083 345.188 694.083 345.188 702.357 336.879 702.357ZM569.568 685.807 577.879 685.807 577.879 694.082 569.568 694.082ZM561.258 685.807 569.568 685.807 569.568 694.082 561.258 694.082ZM552.95 685.807 561.258 685.807 561.258 694.082 552.95 694.082ZM544.639 685.807 552.947 685.807 552.947 694.082 544.639 694.082ZM536.329 685.807 544.636 685.807 544.636 694.082 536.329 694.082ZM528.018 685.807 536.326 685.807 536.326 694.082 528.018 694.082ZM519.707 685.807 528.015 685.807 528.015 694.082 519.707 694.082ZM503.086 685.807 511.396 685.807 511.396 694.082 503.086 694.082ZM486.466 685.807 494.775 685.807 494.775 694.082 486.466 694.082ZM478.155 685.807 486.464 685.807 486.464 694.082 478.155 694.082ZM469.845 685.807 478.154 685.807 478.154 694.082 469.845 694.082ZM461.534 685.807 469.844 685.807 469.844 694.082 461.534 694.082ZM444.914 685.807 453.223 685.807 453.223 694.082 444.914 694.082ZM436.603 685.807 444.913 685.807 444.913 694.082 436.603 694.082ZM419.982 685.807 428.292 685.807 428.292 694.082 419.982 694.082ZM386.741 685.807 395.05 685.807 395.05 694.082 386.741 694.082ZM378.431 685.807 386.74 685.807 386.74 694.082 378.431 694.082ZM370.12 685.807 378.43 685.807 378.43 694.082 370.12 694.082ZM361.81 685.807 370.119 685.807 370.119 694.082 361.81 694.082ZM353.5 685.807 361.809 685.807 361.809 694.082 353.5 694.082ZM345.189 685.807 353.498 685.807 353.498 694.082 345.189 694.082ZM336.879 685.807 345.188 685.807 345.188 694.082 336.879 694.082Z"
                  fill-rule="evenodd"
                />
              </g>
            </svg>